<svg width="409" height="435" viewBox="0 0 409 435" fill="none" xmlns="http://www.w3.org/2000/svg">
<path d="M331.421 342.765C248.63 390.564 129.377 358.651 82.2704 277.059C35.1634 195.467 34.1575 114.842 116.948 67.0428C199.739 19.2435 260.737 48.4679 307.844 130.06C354.951 211.651 414.212 294.965 331.421 342.765Z" fill="#FBDF6A" fill-opacity="0.21"/>
<path d="M354.188 95.1112C342.35 84.878 341.425 64.0914 352.102 51.7407C362.778 39.3899 375.631 34.3927 387.469 44.6259C399.308 54.8592 397.716 66.2657 387.04 78.6164C376.363 90.9671 366.026 105.344 354.188 95.1112Z" fill="#FBDF6A" fill-opacity="0.21"/>
<path d="M387.326 336.295C398.391 347.36 394.225 371.739 378.816 387.149C363.406 402.558 342.951 404.817 336.274 398.431C329.596 392.045 329.914 373.815 345.323 358.406C360.733 342.996 376.261 325.23 387.326 336.295Z" fill="#FBDF6A" fill-opacity="0.21"/>
<path d="M25.4063 276.436C40.5213 272.386 59.5514 288.184 65.1917 309.234C70.8319 330.284 62.5607 349.127 53.6912 351.717C44.8216 354.307 29.1933 344.917 23.553 323.867C17.9127 302.818 10.2913 280.486 25.4063 276.436Z" fill="#FBDF6A" fill-opacity="0.21"/>
<path d="M106.83 124.575L155.612 198.346C155.612 198.346 183.229 196.654 193.717 181.486L168.001 97.394C168.001 97.394 125.796 120.626 106.83 124.575Z" fill="#BA5F49"/>
<g style="mix-blend-mode:multiply" opacity="0.75">
<path d="M171.316 107.956L168.068 97.3417C168.068 97.3417 125.864 120.574 106.898 124.523L117.265 140.206C139.474 134.609 152.201 127.183 171.316 107.956Z" fill="#8F5243"/>
</g>
<path d="M174.423 143.06C170.163 134.053 159.135 130.332 149.789 134.75C140.444 139.167 136.322 150.049 140.582 159.056C144.841 168.063 155.87 171.783 165.215 167.366C174.56 162.949 178.683 152.067 174.423 143.06Z" fill="#CCB1B1"/>
<path d="M170.235 144.587C171.739 147.975 171.841 151.821 170.517 155.283C169.193 158.745 166.552 161.54 163.171 163.057C161.535 163.914 159.741 164.431 157.899 164.577C156.057 164.722 154.205 164.493 152.453 163.904C150.702 163.314 149.087 162.376 147.708 161.146C146.328 159.916 145.211 158.42 144.425 156.747C143.638 155.074 143.198 153.26 143.132 151.413C143.065 149.566 143.373 147.725 144.036 146.001C144.7 144.276 145.706 142.704 146.993 141.379C148.281 140.054 149.823 139.004 151.528 138.291C154.844 136.656 158.673 136.4 162.178 137.579C165.683 138.759 168.58 141.279 170.235 144.587Z" fill="#F0E1DD"/>
<path d="M153.618 156.734C153.325 155.689 153.344 154.582 153.672 153.548C154.001 152.514 154.625 151.599 155.467 150.915C156.469 149.868 157.854 149.281 158.848 148.294C159.842 147.308 159.608 145.783 159.419 144.387C159.24 143.209 158.996 142.043 158.686 140.893C155.489 141.097 152.147 144.012 150.607 148.346C148.719 153.626 150.205 159 153.941 160.328C154.42 160.496 154.922 160.59 155.43 160.609C154.678 159.392 154.07 158.091 153.618 156.734Z" fill="#8F4B46"/>
<path d="M160.748 141.109C160.977 142.033 161.176 142.989 161.346 143.976C161.611 144.88 161.668 145.832 161.511 146.761C161.353 147.689 160.987 148.57 160.439 149.336C158.971 150.933 155.419 152.251 155.286 154.872C155.464 156.854 156.249 158.732 157.533 160.251C159.097 159.629 160.5 158.663 161.638 157.424C162.777 156.186 163.622 154.706 164.111 153.096C165.952 147.825 164.48 142.468 160.748 141.109Z" fill="#8F4B46"/>
<g style="mix-blend-mode:screen">
<path d="M183.346 185.597C184.682 184.562 186.305 183.304 187.962 182.02C182.956 168.193 166.695 123.153 161.185 107.279C158.573 108.736 155.878 110.039 153.113 111.179C158.841 126.532 175.513 170.008 182.486 186.128C182.822 186.003 183.089 185.824 183.346 185.597Z" fill="#8F524D"/>
</g>
<g style="mix-blend-mode:multiply" opacity="0.55">
<path d="M149.204 155.091C141.001 147.37 134.204 137.936 126.886 129.366C125.176 127.455 123.603 125.426 122.18 123.293C118.627 124.688 114.973 125.809 111.249 126.647L155.918 194.481C155.918 194.481 180.865 193.152 190.335 179.288L187.45 169.908C173.618 170.881 160.053 165.284 149.204 155.091Z" fill="#8B4B3A"/>
</g>
<g style="mix-blend-mode:multiply" opacity="0.55">
<path d="M129.421 120.903C126.79 122.048 121.206 123.642 118.739 124.579C126.377 137.612 160.633 192.289 161.608 193.861C164.756 193.317 167.866 192.571 170.918 191.628C168.078 187.196 131.059 124.345 129.421 120.903Z" fill="#A75640"/>
</g>
<g style="mix-blend-mode:screen">
<path d="M169.444 129.984C169.713 130.893 169.707 131.861 169.428 132.767C169.149 133.673 168.608 134.476 167.874 135.075C167.14 135.675 166.245 136.044 165.302 136.137C164.359 136.23 163.409 136.042 162.572 135.597C161.734 135.152 161.047 134.47 160.595 133.636C160.144 132.802 159.949 131.854 160.034 130.91C160.12 129.966 160.482 129.068 161.076 128.329C161.669 127.59 162.468 127.043 163.372 126.757C163.982 126.57 164.623 126.504 165.259 126.565C165.895 126.626 166.512 126.811 167.076 127.111C167.64 127.411 168.14 127.819 168.546 128.312C168.953 128.805 169.258 129.373 169.444 129.984Z" fill="#B28784"/>
</g>
<g style="mix-blend-mode:screen">
<path d="M168.849 121.185C168.98 121.719 168.952 122.279 168.769 122.797C168.586 123.315 168.256 123.769 167.819 124.102C167.382 124.435 166.858 124.633 166.31 124.672C165.762 124.712 165.214 124.59 164.734 124.323C164.253 124.055 163.862 123.654 163.606 123.167C163.351 122.68 163.243 122.13 163.296 121.583C163.349 121.036 163.56 120.516 163.904 120.087C164.247 119.659 164.709 119.34 165.231 119.17C165.601 119.062 165.988 119.029 166.371 119.072C166.754 119.115 167.124 119.234 167.461 119.421C167.798 119.609 168.094 119.861 168.332 120.164C168.57 120.467 168.746 120.814 168.849 121.185Z" fill="#B28784"/>
</g>
<path d="M100.228 120.107L100.449 131.741C100.449 131.741 120.657 132.325 144.228 118.85C167.8 105.375 176.246 97.3131 176.246 97.3131L167.675 87.1962C167.675 87.1962 145.214 84.2969 100.228 120.107Z" fill="#F2F2F2"/>
<g style="mix-blend-mode:screen" opacity="0.9">
<path d="M109.348 125.765C109.677 121.655 110.23 117.566 111.004 113.516L111.281 111.813C107.808 114.315 104.1 117.107 100.268 120.158L100.449 131.741C103.19 131.738 105.927 131.535 108.638 131.134C108.784 129.333 109.021 127.541 109.348 125.765Z" fill="#F2F2F2"/>
</g>
<g style="mix-blend-mode:screen" opacity="0.9">
<path d="M149.264 115.922C169.009 104.248 176.211 97.3394 176.211 97.3394L167.674 87.1963C163.727 87.0322 159.781 87.5363 156.003 88.6873C154.297 97.834 151.471 106.793 149.264 115.922Z" fill="#F2F2F2"/>
</g>
<path d="M100.228 120.107L100.449 131.741C100.449 131.741 120.657 132.325 144.228 118.85C167.8 105.375 176.246 97.313 176.246 97.313L167.675 87.1961C167.675 87.1961 148.985 109.694 100.228 120.107Z" fill="#DEDEDE"/>
<g style="mix-blend-mode:screen" opacity="0.65">
<path d="M157.353 96.2243C155.071 97.993 152.267 99.787 149.05 101.712C150.266 105.236 151.855 108.824 152.705 111.387C152.922 112.086 153.155 112.771 153.424 113.537C158.001 110.748 161.757 108.298 164.834 106.157C162.109 103.027 159.609 99.7078 157.353 96.2243Z" fill="#C7CBC9"/>
</g>
<g style="mix-blend-mode:multiply" opacity="0.35">
<path d="M129.991 111.094C121.979 114.315 113.742 116.943 105.345 118.958C105.391 119.436 105.437 119.915 105.453 120.39C105.624 124.102 105.435 127.768 105.914 131.459C117.225 130.241 128.234 127.051 138.442 122.034C134.475 119.442 131.497 115.587 129.991 111.094Z" fill="#8F838D"/>
</g>
<path d="M107.678 104.126L109.339 115.592C119.625 113.264 129.52 109.462 138.718 104.303C154.113 95.6753 158.167 90.9901 158.167 90.9901L151.866 82.3359C151.866 82.3359 140.032 81.3814 123.297 91.3181C117.46 94.7548 112.192 99.0754 107.678 104.126Z" fill="#F2F2F2"/>
<g style="mix-blend-mode:screen" opacity="0.9">
<path d="M151.547 85.9404C151.831 85.5037 152.089 85.0332 152.347 84.5627C152.516 84.2091 152.738 83.8827 153.003 83.5938L151.941 82.2237C149.614 82.151 147.287 82.3465 145.005 82.8065C144.898 84.3789 144.757 85.9774 144.576 87.5252C144.396 89.0731 144.196 90.527 143.948 92.1272C146.609 90.2269 149.147 88.1605 151.547 85.9404Z" fill="#F2F2F2"/>
</g>
<g style="mix-blend-mode:screen" opacity="0.9">
<path d="M132.569 98.6721C133.682 98.1883 134.773 97.6407 135.847 97.1061C135.253 96.2745 134.966 95.2623 135.035 94.2427C135.175 91.2105 135.716 88.1377 136.109 85.1529C134.768 85.6231 133.357 86.1757 131.954 86.7753C130.987 91.0444 130.36 95.4024 129.689 99.7397C130.592 99.4732 131.587 99.0811 132.569 98.6721Z" fill="#F2F2F2"/>
</g>
<g style="mix-blend-mode:screen" opacity="0.9">
<path d="M112.491 104.54C112.674 103.892 112.878 103.247 113.101 102.604C113.528 100.92 113.971 99.2224 114.441 97.5589C112.008 99.5564 109.746 101.753 107.679 104.126L107.927 106.019C109.429 105.477 110.94 104.983 112.491 104.54Z" fill="#F2F2F2"/>
</g>
<path d="M134.169 94.1023C125.892 98.4618 117.088 101.736 107.974 103.844L107.653 104.093L109.339 115.592C119.626 113.264 129.521 109.462 138.719 104.303C154.113 95.6754 158.168 90.9902 158.168 90.9902L151.958 82.4544C146.406 86.8845 140.45 90.7842 134.169 94.1023Z" fill="#DEDEDE"/>
<g style="mix-blend-mode:screen" opacity="0.65">
<path d="M145.484 87.2286C143.714 88.4373 142.046 89.5674 140.296 90.626C141.698 94.0067 143.547 97.2306 145.16 100.394C149.012 98.0315 151.822 96.0705 153.826 94.5714C151.184 92.0703 148.3 89.6756 145.484 87.2286Z" fill="#C7CBC9"/>
</g>
<g style="mix-blend-mode:multiply" opacity="0.35">
<path d="M129.645 100.451C128.871 99.453 128.072 98.4212 127.357 97.3238C121.157 100.155 114.678 102.327 108.025 103.804L107.703 104.053L109.339 115.592C118.21 113.592 126.795 110.487 134.892 106.348C132.977 104.537 131.221 102.564 129.645 100.451Z" fill="#8F838D"/>
</g>
<path d="M114.146 100.251C118.71 96.512 123.645 93.2503 128.873 90.5169C133.63 88.3622 138.592 86.6935 143.685 85.5361C139.211 88.7193 134.536 91.6097 129.689 94.1891C124.664 96.587 119.469 98.6132 114.146 100.251Z" fill="#A1A8A6"/>
<g style="mix-blend-mode:multiply">
<path d="M123.952 92.8956C123.108 93.4138 122.34 94.3074 121.483 94.8086C119.92 96.1754 118.468 97.6634 117.139 99.2586C119.275 98.5235 122.279 97.4411 125.861 95.8832C125.418 92.2737 124.449 92.6996 123.952 92.8956Z" fill="#A1A8A6"/>
</g>
<path d="M119.671 97.5672C119.155 97.6694 118.637 97.1767 118.391 96.4743C117.672 94.3242 116.621 90.6984 117.13 90.1684C117.488 88.7805 124.881 92.6629 124.843 92.9631C124.703 93.8298 124.332 95.7957 123.816 96.1418C122.506 96.8039 121.111 97.2835 119.671 97.5672Z" fill="#DEDEDE"/>
<g style="mix-blend-mode:screen" opacity="0.65">
<path d="M117.698 89.8903C119.63 90.2883 121.734 92.5838 123.781 96.1684C124.305 95.7622 124.685 93.8432 124.809 92.9896C124.88 92.6633 118.789 89.5866 117.698 89.8903Z" fill="#DEDEDE"/>
</g>
<path d="M333.334 120.883C327.401 114.404 285.876 115.71 265.766 130.658C258.908 135.749 254.881 143.237 249.439 148.818C222.635 176.835 232.159 197.119 254.337 209.071C266.854 215.796 293.032 215.442 315.238 202.836C337.443 190.23 345.661 179.312 347.892 166.652C352.219 139.479 333.334 120.883 333.334 120.883ZM318.938 167.959C315.619 167.251 310.775 165.644 305.795 164.719C305.641 164.732 305.486 164.732 305.332 164.719C302.122 164.832 298.923 165.151 295.754 165.672C294.492 166.654 293.174 167.564 291.808 168.394C289.159 169.437 286.903 171.284 285.359 173.676C284.813 174.597 284.092 175.402 283.236 176.045C282.097 177.831 281.087 179.696 280.216 181.627C275.671 191.673 271.29 176.835 266.827 173.268C264.433 169.293 287.019 144.571 301.087 146.967C302.933 147.002 304.765 147.295 306.53 147.838L307.101 148.056C312.244 148.791 317.36 150.071 322.422 151.16C333.225 153.556 329.714 170.409 318.938 168.04V167.959Z" fill="#EE9843"/>
<g style="mix-blend-mode:multiply" opacity="0.65">
<path d="M332.409 120.203C323.946 114.54 285.06 116.309 265.766 130.658C258.909 135.749 254.881 143.237 249.439 148.818C228.486 170.6 229.765 187.861 241.82 200.005L242.935 200.985C248.378 201.883 254.419 200.985 259.045 201.366C267.209 202.264 275.372 210.786 283.536 206.539C291.237 202.509 296.87 202.428 305.306 201.638C312.898 200.903 315.292 191.891 322.83 190.067C325.878 189.359 332.191 189.55 332.545 185.166C332.552 183.073 333.026 181.008 333.933 179.122C337.47 173.105 346.614 173.458 344.382 165.29C342.477 158.457 343.593 151.078 347.103 147.048C344.763 132.319 335.239 123.361 332.409 120.203ZM318.803 168.04C315.483 167.332 310.639 165.726 305.659 164.8C305.505 164.813 305.351 164.813 305.197 164.8C301.987 164.914 298.787 165.232 295.618 165.753C294.356 166.736 293.039 167.645 291.672 168.476C289.023 169.518 286.768 171.366 285.223 173.758C284.677 174.679 283.956 175.484 283.1 176.127C281.961 177.912 280.952 179.778 280.08 181.708C277.876 186.555 275.753 185.629 273.603 182.961C270.665 181.218 267.753 173.894 264.787 171.525C262.392 167.577 284.978 142.828 299.047 145.224C300.891 145.272 302.722 145.565 304.489 146.096C304.695 146.161 304.895 146.243 305.088 146.341C310.231 147.048 315.347 148.328 320.408 149.444C322.38 149.809 324.14 150.909 325.334 152.521C332.354 157.122 328.545 170.164 318.939 168.04H318.803Z" fill="#D98B43"/>
</g>
<path d="M241.167 183.505C241.82 184.186 242.473 184.867 243.153 185.52L245.248 184.649C251.072 182.253 256.297 178.604 262.147 176.208L267.59 174.003C267.401 173.791 267.191 173.6 266.964 173.431C264.569 169.456 287.155 144.734 301.224 147.13C303.07 147.165 304.902 147.458 306.666 148.001L307.238 148.219C310.177 148.655 313.116 149.254 316.054 149.88C318.504 146.776 320.925 143.563 323.592 140.541C327.752 135.296 332.379 130.439 337.416 126.029C336.158 124.235 334.795 122.517 333.334 120.884C327.402 114.404 285.876 115.71 265.766 130.658C258.909 135.749 254.882 143.237 249.439 148.818C238.064 160.689 233.656 171.607 234.01 181.136C235.305 180.819 236.663 180.874 237.928 181.292C239.194 181.711 240.316 182.478 241.167 183.505Z" fill="#822A00"/>
<path d="M344.709 167.006C344.274 163.984 340.709 158.702 341.172 155.843C341.634 152.984 345.335 150.397 346.614 147.974C349.036 143.7 346.614 138.69 345.117 134.361C339.212 117.317 326.069 105.555 295.727 107.352C280.026 108.25 249.467 116.064 233.575 145.469C224.051 163.058 226.69 175.637 235.262 187.862C238.5 192.49 248.079 200.359 254.936 199.651C258.283 199.27 259.971 197.418 263.699 198.181C266.506 198.827 269.129 200.103 271.372 201.911C277.386 206.294 281.577 205.396 288.081 201.911C291.673 199.923 293.061 198.616 297.17 199.515C300.118 200.318 303.246 200.155 306.095 199.052C312.517 196.329 311.293 186.609 320.354 188.161C323.647 188.678 326.858 189.55 329.198 186.527C331.538 183.505 328.872 180.483 330.45 177.461C333.797 171.144 346.287 177.624 344.709 167.006ZM264.814 152.222C276.325 127.881 298.503 138.962 300.598 143.4C308.898 160.689 253.44 176.399 264.814 152.222Z" fill="#A73D22"/>
<g style="mix-blend-mode:screen" opacity="0.75">
<path d="M258.201 153.311C259.15 145.613 261.951 138.26 266.365 131.883C268.636 128.711 271.696 126.187 275.243 124.563C278.79 122.939 282.699 122.272 286.583 122.626C296.815 124.124 304.244 134.497 314.558 135.423C316.671 135.674 318.815 135.392 320.792 134.602C322.769 133.813 324.517 132.541 325.878 130.903C327.171 129.214 327.821 127.119 327.712 124.994C327.602 122.868 326.74 120.852 325.279 119.305C323.901 118.166 322.31 117.314 320.599 116.8C306.233 111.569 290.489 111.547 276.109 116.736C261.728 121.925 249.623 131.997 241.901 145.197C238.896 149.562 237.501 154.837 237.955 160.118C238.826 165.291 243.806 170.028 248.84 168.939C250.396 168.496 251.828 167.701 253.027 166.615C254.225 165.529 255.158 164.182 255.752 162.677C256.966 159.673 257.79 156.525 258.201 153.311Z" fill="#B1523A"/>
</g>
<g style="mix-blend-mode:screen" opacity="0.75">
<path d="M297.033 168.476C287.563 172.914 276.597 172.615 266.174 173.513C263.614 173.627 261.096 174.208 258.745 175.228C257.577 175.753 256.56 176.565 255.789 177.588C255.018 178.612 254.519 179.814 254.337 181.082C254.011 185.52 258.8 188.624 263.154 189.522C271.916 191.292 280.896 188.379 289.305 185.357C297.465 182.794 305.237 179.13 312.408 174.466C319.615 169.695 324.749 162.37 326.776 153.964C327.37 151.507 327.218 148.929 326.34 146.559C325.334 144.244 322.939 141.848 320.517 142.529C311.809 144.87 312.408 161.288 297.033 168.476Z" fill="#B1523A"/>
</g>
<path d="M311.7 118.161C310.88 118.11 310.064 118.309 309.36 118.733L304.353 121.102L305.795 123.661C308.286 122.014 311.168 121.056 314.149 120.884C313.605 119.713 312.924 118.461 311.7 118.161Z" fill="#CC3131"/>
<path d="M339.239 140.106C338.42 140.028 337.599 140.219 336.899 140.65L331.892 143.019L333.334 145.578C335.809 143.898 338.679 142.894 341.661 142.665C341.144 141.576 340.463 140.324 339.239 140.106Z" fill="#CC3131"/>
<path d="M337.389 149.608L331.756 147.784C329.294 150.596 326.668 153.26 323.892 155.761C326.35 156.169 328.632 157.296 330.45 159.001C332.352 155.586 334.684 152.429 337.389 149.608Z" fill="#EAD4AF"/>
<path d="M247.235 165.508L241.602 163.711C239.147 166.521 236.521 169.177 233.738 171.662C236.199 172.048 238.491 173.157 240.323 174.847C242.228 171.457 244.55 168.32 247.235 165.508Z" fill="#EAD4AF"/>
<path d="M303.918 176.998C303.132 176.583 302.246 176.394 301.36 176.454H296.244C295.809 178.278 295.346 180.075 294.883 181.899C298.356 180.812 302.011 180.432 305.632 180.783C305.641 180.065 305.492 179.354 305.196 178.7C304.899 178.046 304.463 177.465 303.918 176.998Z" fill="#FFCC00"/>
<path d="M316.897 143.7C316.061 143.261 315.117 143.072 314.176 143.155H309.088L307.7 148.6C311.151 147.548 314.78 147.205 318.367 147.593C318.417 146.876 318.312 146.158 318.058 145.485C317.804 144.813 317.408 144.204 316.897 143.7Z" fill="#FFCC00"/>
<path d="M249.167 151.105C249.167 152.63 249.412 154.155 249.521 155.707L260.025 153.365C259.429 152.219 259.201 150.916 259.372 149.635C256.035 150.501 252.612 150.994 249.167 151.105Z" fill="#14B661"/>
<path d="M266.582 129.242L258.147 132.864C257.822 134.292 257.757 135.768 257.956 137.22C261.011 135.354 264.333 133.967 267.807 133.109C267.042 131.961 266.617 130.621 266.582 129.242Z" fill="#CC3131"/>
<path d="M281.141 130.086L285.305 128.289C284.615 127.899 284.017 127.368 283.547 126.729C283.078 126.091 282.75 125.361 282.583 124.586C282.289 123.053 281.562 121.635 280.488 120.502L277.304 121.21C278.61 124.178 279.835 127.118 281.141 130.086Z" fill="#FFCC00"/>
<path d="M258.147 166.407L262.337 164.61C261.641 164.229 261.037 163.699 260.567 163.06C260.097 162.42 259.772 161.685 259.616 160.907C259.322 159.373 258.595 157.956 257.521 156.823L254.337 157.531L258.147 166.407Z" fill="#FFCC00"/>
<path d="M301.36 129.705L298.639 128.289L292.57 133.027L297.088 135.041L301.36 129.705Z" fill="#EAD4AF"/>
<path d="M273.821 188.379L271.1 186.963L265.032 191.673L269.576 193.688L273.821 188.379Z" fill="#EAD4AF"/>
<path d="M318.122 130.386C318.053 129.982 317.871 129.606 317.596 129.302C317.321 128.998 316.966 128.779 316.571 128.671C316.173 128.563 315.752 128.587 315.369 128.739C314.986 128.891 314.663 129.163 314.448 129.515C314.325 129.759 314.225 130.014 314.149 130.277C313.442 132.846 313.386 135.55 313.985 138.145C315.281 137.528 316.733 137.319 318.149 137.546C317.568 136.181 317.425 134.668 317.741 133.217C318.065 132.311 318.195 131.346 318.122 130.386Z" fill="#14B661"/>
<path d="M298.34 184.54C298.258 184.137 298.067 183.765 297.789 183.463C297.511 183.161 297.156 182.94 296.762 182.825C296.365 182.73 295.949 182.764 295.573 182.92C295.196 183.077 294.879 183.348 294.666 183.696C294.512 183.925 294.41 184.185 294.367 184.458C293.66 187.027 293.604 189.731 294.204 192.327C295.489 191.677 296.945 191.448 298.367 191.673C297.785 190.298 297.643 188.776 297.959 187.317C298.266 186.425 298.396 185.482 298.34 184.54Z" fill="#14B661"/>
<path d="M266.147 181.409L270.284 182.035C270.719 179.312 271.155 176.726 271.617 174.058L268.406 175.337C267.671 177.298 266.909 179.367 266.147 181.409Z" fill="#CC3131"/>
<path d="M244.187 177.842C244.422 177.991 244.702 178.049 244.976 178.005L250.174 177.597C249.875 174.419 250.227 171.214 251.208 168.177C249.707 168.965 248.056 169.429 246.364 169.538C245.657 171.961 244.922 174.384 244.215 176.807C244.024 177.161 243.942 177.597 244.187 177.842Z" fill="#FFCC00"/>
<path d="M326.395 170.627C326.504 170.705 326.628 170.76 326.759 170.788C326.89 170.816 327.025 170.817 327.157 170.79L332.354 170.382C332.056 167.21 332.38 164.01 333.307 160.961C331.816 161.753 330.174 162.218 328.49 162.323C327.783 164.746 327.048 167.196 326.313 169.619C326.231 169.892 326.15 170.382 326.395 170.627Z" fill="#FFCC00"/>
<path d="M320.517 175.773C320.495 172.953 321.1 170.163 322.286 167.605H318.095L315.374 175.119L320.517 175.773Z" fill="#14B661"/>
<path d="M279.645 194.695L284.353 194.913C284.68 192.038 285.253 189.196 286.067 186.418C285.817 186.231 285.522 186.113 285.212 186.075C284.901 186.036 284.587 186.08 284.298 186.201L279.645 194.695Z" fill="#6BC3C3"/>
<path d="M237.112 153.883L234.88 161.234L239.044 161.561L240.404 153.392L237.112 153.883Z" fill="#CC3131"/>
<path d="M249.494 139.479C248.571 139.601 247.698 139.968 246.964 140.541L242.963 143.264L245.685 146.613C247.546 144.234 250.02 142.407 252.841 141.331C252.003 140.308 250.806 139.646 249.494 139.479Z" fill="#6BC3C3"/>
<path d="M261.276 174.793C260.352 174.915 259.479 175.281 258.745 175.855L254.745 178.577L257.466 181.926C259.375 179.49 261.917 177.625 264.813 176.535C263.905 175.517 262.636 174.892 261.276 174.793Z" fill="#6BC3C3"/>
<path d="M331.484 135.45C331.929 135.62 332.397 135.721 332.872 135.749C333.223 135.735 333.564 135.627 333.86 135.438C334.156 135.248 334.397 134.984 334.557 134.671C334.717 134.358 334.792 134.008 334.773 133.657C334.755 133.306 334.643 132.967 334.45 132.673C332.085 131.796 329.822 130.664 327.702 129.297C326.586 130.495 325.47 131.692 324.382 132.918L331.484 135.45Z" fill="#6BC3C3"/>
<path d="M310.312 171.117C310.75 171.307 311.222 171.409 311.7 171.417C312.055 171.411 312.401 171.309 312.702 171.121C313.004 170.934 313.249 170.668 313.411 170.352C313.573 170.036 313.646 169.682 313.623 169.327C313.599 168.973 313.48 168.632 313.278 168.34C310.915 167.457 308.653 166.326 306.529 164.964L303.209 168.585L310.312 171.117Z" fill="#6BC3C3"/>
<path d="M298.747 126.955C299.186 127.147 299.656 127.258 300.135 127.282C300.477 127.28 300.814 127.191 301.114 127.025C301.413 126.858 301.666 126.619 301.849 126.329C302.029 126.024 302.123 125.676 302.123 125.322C302.123 124.967 302.029 124.62 301.849 124.314C299.439 123.417 297.132 122.267 294.964 120.884L291.645 124.423L298.747 126.955Z" fill="#6BC3C3"/>
<path d="M268.95 144.135C269.387 144.331 269.86 144.433 270.338 144.435C270.692 144.427 271.038 144.324 271.34 144.138C271.641 143.951 271.887 143.687 272.052 143.373C272.227 143.066 272.318 142.719 272.318 142.366C272.318 142.012 272.227 141.665 272.052 141.358C269.687 140.481 267.424 139.349 265.304 137.982L261.984 141.603L268.95 144.135Z" fill="#6BC3C3"/>
<path d="M296.216 114.077C294.201 115.333 291.951 116.167 289.604 116.527C289.767 117.725 289.93 118.923 290.066 120.121C292.716 118.668 295.568 117.621 298.529 117.017C297.444 116.331 296.628 115.293 296.216 114.077Z" fill="#14B661"/>
<path d="M278.42 170.273C277.132 170.189 275.876 169.833 274.736 169.227C273.596 168.622 272.598 167.781 271.807 166.761L268.678 170.082C271.596 171.117 274.347 172.576 276.841 174.411C277.413 173.05 277.93 171.662 278.42 170.273Z" fill="#EAD4AF"/>
<path d="M272.515 123.252C271.228 123.165 269.974 122.807 268.834 122.202C267.695 121.597 266.696 120.758 265.902 119.74L262.773 123.034C265.682 124.102 268.43 125.568 270.937 127.391C271.426 126.002 271.971 124.641 272.515 123.252Z" fill="#EAD4AF"/>
<path d="M318.558 182.743C317.272 182.653 316.018 182.293 314.879 181.688C313.74 181.083 312.741 180.246 311.945 179.231L308.816 182.525C311.728 183.587 314.476 185.053 316.98 186.881L318.558 182.743Z" fill="#EAD4AF"/>
<path d="M306.448 163.248C306.659 163.508 306.931 163.712 307.239 163.84C307.548 163.968 307.884 164.018 308.217 163.984C308.551 163.938 308.867 163.807 309.134 163.601C309.402 163.396 309.611 163.124 309.741 162.813C309.577 160.526 309.441 158.239 309.278 155.952C308.13 156.272 307.024 156.729 305.985 157.313C305.427 158.964 305.427 160.753 305.985 162.404C306.111 162.701 306.266 162.983 306.448 163.248Z" fill="#CC3131"/>
<path d="M290.312 166.461C290.067 166.135 289.523 166.216 289.142 166.461L286.203 167.169C285.577 169.701 284.978 172.233 284.353 174.793H288.271C288.979 172.342 289.659 169.865 290.339 167.387C290.411 167.242 290.446 167.082 290.442 166.921C290.437 166.759 290.392 166.601 290.312 166.461Z" fill="#14B661"/>
<path d="M249.14 188.951C252.227 188.745 255.326 189.105 258.283 190.012C258.583 188.324 258.909 186.636 259.236 184.948C256.52 185.192 253.788 185.192 251.072 184.948C250.419 186.391 249.766 187.671 249.14 188.951Z" fill="#14B661"/>
<path d="M213.71 224.571C208.762 227.934 208.305 235.461 204.397 239.991C200.488 244.522 193.868 245.627 190.979 250.659C188.09 255.692 190.722 262.756 191.09 268.92C190.905 274.895 189.851 280.811 187.961 286.482C186.598 292.218 186.082 298.608 189.246 303.308C191.177 305.827 193.777 307.752 196.749 308.864C199.72 309.976 202.945 310.231 206.055 309.598C212.376 308.194 218.385 305.638 223.781 302.056C239.776 293.371 255.031 283.387 269.393 272.205C272.754 269.869 275.581 266.847 277.686 263.336C278.676 261.598 279.146 259.613 279.042 257.616C278.937 255.618 278.262 253.693 277.096 252.069C274.954 249.718 271.488 249.125 269.071 247.064C264.688 243.358 264.227 237.169 258.744 234.126C254.003 232.11 248.888 231.118 243.736 231.217C240.53 231.076 237.364 230.455 234.342 229.374C231.372 228.154 228.866 225.937 225.735 224.576C223.892 223.568 221.825 223.039 219.724 223.038C217.623 223.037 215.555 223.564 213.71 224.571Z" fill="#D2923D"/>
<g style="mix-blend-mode:screen" opacity="0.32">
<path d="M210.562 267.941C219.498 264.453 217.28 258.555 220.911 251.478C222.857 247.353 225.945 243.874 229.809 241.452C233.804 238.75 238.63 237.558 243.423 238.089C248.86 239.076 252.994 242.979 258.273 244.188C260.927 244.734 263.684 244.469 266.186 243.427C264.083 240.065 262.729 236.243 258.801 234.042C254.059 232.026 248.945 231.035 243.793 231.133C240.587 230.992 237.421 230.371 234.399 229.29C231.429 228.071 228.922 225.853 225.792 224.492C223.944 223.507 221.879 223 219.785 223.019C217.691 223.037 215.635 223.579 213.804 224.596C208.855 227.959 208.399 235.486 204.491 240.016C200.582 244.547 193.961 245.652 191.072 250.684C188.183 255.717 190.407 261.716 191.052 267.459C197.251 270.124 204.238 270.297 210.562 267.941Z" fill="#A24B27"/>
</g>
<g style="mix-blend-mode:multiply" opacity="0.55">
<path d="M197.528 277.657C203.02 276.087 212.057 274.076 212.048 267.184C208.753 270.53 204.471 272.73 199.833 273.458C196.684 273.653 193.576 272.672 191.109 270.705C190.963 273.915 190.458 277.098 189.603 280.195C192.154 279.522 194.798 278.38 197.528 277.657Z" fill="#B9866E"/>
</g>
<g style="mix-blend-mode:multiply" opacity="0.55">
<path d="M218.708 244.529C220.07 243.591 221.494 242.748 222.971 242.005C226.387 240.96 229.714 239.641 232.918 238.061C235.395 236.065 237.248 233.401 238.258 230.384C236.895 230.153 235.556 229.796 234.258 229.319C233.26 228.879 232.295 228.369 231.37 227.791C230.567 230.308 229.409 232.697 227.932 234.886C225.372 238.556 219.745 240.387 218.708 244.529Z" fill="#B9866E"/>
</g>
<g style="mix-blend-mode:multiply" opacity="0.55">
<path d="M248.746 262.387C243.804 264.367 238.063 262.541 235.855 269.47C235.147 272.368 233.655 275.016 231.543 277.123C231.151 277.48 230.698 277.821 230.275 278.17C236.666 278.917 240.876 270.906 245.468 267.151C248.22 265.377 250.652 263.149 252.659 260.561C251.389 261.239 250.083 261.849 248.746 262.387Z" fill="#B9866E"/>
</g>
<g style="mix-blend-mode:multiply" opacity="0.55">
<path d="M241.538 246.521C241.472 246.723 241.417 246.929 241.374 247.137C243.82 246.219 246.357 245.568 248.942 245.197C254.195 244.259 258.975 241.57 262.507 237.568C261.483 236.114 260.151 234.904 258.607 234.024C256.427 232.904 254.072 232.165 251.643 231.839C251.438 234.549 250.439 237.138 248.771 239.283C246.69 242.025 243.066 243.632 241.538 246.521Z" fill="#B9866E"/>
</g>
<g style="mix-blend-mode:multiply" opacity="0.55">
<path d="M276.912 252.02C276.624 257.68 273.253 262.419 265.164 264.089C257.075 265.759 256.399 273.986 249.637 277.229C242.876 280.472 236.125 278.476 231.971 284.424C230.623 286.364 228.83 287.951 226.742 289.053C224.654 290.154 222.332 290.738 219.971 290.756C215.266 290.854 213.639 297.212 210.29 299.518C208.279 300.91 206.096 302.035 203.797 302.865C196.054 305.583 191.07 302.278 187.09 296.932C187.267 299.238 187.996 301.467 189.214 303.432C191.162 305.934 193.774 307.839 196.751 308.929C199.729 310.019 202.953 310.251 206.056 309.599C212.377 308.195 218.386 305.638 223.782 302.056C239.777 293.372 255.032 283.388 269.394 272.205C272.755 269.87 275.582 266.847 277.687 263.337C278.677 261.599 279.147 259.613 279.043 257.616C278.938 255.619 278.263 253.694 277.097 252.07L276.912 252.02Z" fill="#B9866E"/>
</g>
<path d="M269.253 266.794C268.784 269.174 268.592 271.134 266.364 272.321C263.985 273.61 261.195 273.909 258.597 273.153C258.239 276.355 258.818 278.388 255.405 279.82C253.026 280.817 250.452 281.259 247.878 281.112C247.263 283.42 247.53 284.645 245.294 285.863C242.503 287.451 239.255 288.04 236.085 287.531C233.75 293.206 229.232 296.684 224.375 295.126C223.942 296.909 222.821 298.447 221.258 299.406C218.239 301.09 214.744 301.714 211.329 301.179C207.915 306.204 205.729 308.721 200.122 308.744L242.644 345.421C259.62 341.381 275.224 332.91 287.865 320.872L275.8 264.483C273.984 266.047 271.648 266.872 269.253 266.794Z" fill="#BE4C1B"/>
<path d="M211.366 305.739C219.605 319.974 230.859 332.233 244.338 341.653C244.338 341.653 229.215 311.713 211.366 305.739Z" fill="#8F3300"/>
<path d="M225.68 299.133C225.68 299.133 233.662 323.842 254.005 338.392C254.005 338.392 241.609 306.871 225.68 299.133Z" fill="#8F3300"/>
<path d="M238.208 291.558C242.53 307.502 251.256 321.904 263.385 333.111C263.385 333.111 251.829 300.791 238.208 291.558Z" fill="#8F3300"/>
<path d="M250.107 285.233C250.107 285.233 254.616 311.852 270.514 328.119C270.514 328.119 262.463 296.865 250.107 285.233Z" fill="#8F3300"/>
<path d="M261.457 279.487C262.694 295.232 267.861 310.415 276.484 323.643C276.484 323.643 272.763 295.058 261.457 279.487Z" fill="#8F3300"/>
<path d="M271.073 272.454C271.456 288.69 275.134 304.677 281.886 319.445C281.886 319.445 280.697 286.919 271.073 272.454Z" fill="#8F3300"/>
<g style="mix-blend-mode:multiply" opacity="0.5">
<path d="M259.697 314.425C250.994 316.297 241.923 315.369 233.78 311.774C229.511 310.11 225.276 308.322 221.128 306.328C218.698 305.186 216.388 303.713 214.023 302.325C210.838 306.983 208.864 309.325 203.564 309.43L243.201 343.328C258.955 339.535 273.426 331.64 285.145 320.445L281.168 301.978C275.107 307.783 267.745 312.051 259.697 314.425Z" fill="#9E5838"/>
</g>
<g style="mix-blend-mode:screen" opacity="0.32">
<path d="M244.501 234.783C244.216 234.708 243.918 234.694 243.628 234.741C243.337 234.789 243.059 234.897 242.813 235.059L232.411 239.969C230.841 240.615 229.369 241.477 228.038 242.53C226.681 243.619 225.8 245.193 225.584 246.92C225.489 247.727 225.657 248.543 226.064 249.245C226.471 249.948 227.094 250.5 227.841 250.818C228.577 250.947 229.333 250.873 230.031 250.607C230.728 250.34 231.341 249.889 231.803 249.302C232.763 248.123 233.546 246.81 234.126 245.404C234.736 243.995 235.634 242.729 236.763 241.689C239.179 239.794 242.968 240.045 244.557 237.171C245.285 236.541 245.391 235.152 244.501 234.783Z" fill="#B27B60"/>
</g>
<g style="mix-blend-mode:screen" opacity="0.32">
<path d="M194.851 257.526L194.015 262.15C193.742 263.139 193.76 264.185 194.068 265.164C194.572 265.916 195.35 266.442 196.236 266.629C197.122 266.816 198.046 266.648 198.811 266.163C201.544 264.683 202.662 261.354 204.134 258.548C205.768 255.554 208.067 252.974 210.854 251.008C211.854 250.403 212.785 249.689 213.629 248.879C214.062 248.467 214.398 247.962 214.61 247.402C214.822 246.842 214.905 246.241 214.853 245.645C214.67 244.926 214.259 244.287 213.681 243.823C213.102 243.36 212.389 243.098 211.648 243.077C210.157 243.057 208.681 243.386 207.339 244.039C205.084 244.878 202.922 245.948 200.887 247.233C198.866 248.558 197.237 250.401 196.171 252.57C195.525 254.16 195.081 255.825 194.851 257.526Z" fill="#B27B60"/>
</g>
<g style="mix-blend-mode:screen" opacity="0.32">
<path d="M254.015 256.834C252.805 257.518 251.665 258.319 250.61 259.224C248.044 261.09 244.95 262.091 241.777 262.08C244.72 259.729 247.254 256.905 249.274 253.725C251.302 250.529 254.338 248.101 257.9 246.825C258.839 246.564 259.825 246.523 260.782 246.703C261.739 246.884 262.642 247.282 263.421 247.867C264.163 248.542 264.659 249.446 264.831 250.435C265.003 251.424 264.842 252.442 264.372 253.329C263.812 254.087 263.09 254.712 262.259 255.158C261.428 255.603 260.508 255.859 259.567 255.906C257.679 255.92 255.805 256.234 254.015 256.834Z" fill="#B27B60"/>
</g>
<g style="mix-blend-mode:screen" opacity="0.32">
<path d="M218.622 268.11C218.924 268.646 219.364 269.091 219.895 269.4C220.426 269.71 221.03 269.872 221.645 269.872C222.893 269.863 224.117 269.53 225.197 268.906C229.712 266.052 233.481 262.162 236.193 257.56C236.825 256.673 237.448 255.323 236.687 254.592C236.444 254.384 236.158 254.234 235.849 254.151C235.54 254.069 235.217 254.057 234.903 254.117C229.29 255.11 224.181 257.98 220.411 262.257C219.649 263.083 219.038 264.036 218.607 265.073C218.407 265.555 218.306 266.072 218.308 266.594C218.311 267.115 218.417 267.631 218.622 268.11Z" fill="#B27B60"/>
</g>
<g style="mix-blend-mode:screen" opacity="0.32">
<path d="M203.475 282.175C202.125 283.046 200.684 283.768 199.178 284.327C197.186 284.775 195.265 285.495 193.468 286.466C192.615 287.091 191.942 287.931 191.516 288.9C191.09 289.869 190.927 290.933 191.043 291.985C191.191 293.009 191.618 293.973 192.277 294.771C192.936 295.569 193.803 296.17 194.781 296.508C195.891 296.793 197.051 296.83 198.178 296.618C199.305 296.405 200.372 295.948 201.303 295.278C203.169 293.899 204.866 292.303 206.358 290.525C207.849 288.73 209.668 287.234 211.716 286.117C213.374 285.339 215.302 285.028 216.905 284.203C217.766 283.86 218.522 283.298 219.097 282.572C219.672 281.845 220.046 280.981 220.182 280.064C220.175 279.314 219.947 278.581 219.527 277.959C219.107 277.337 218.513 276.853 217.819 276.567C216.398 276.035 214.835 276.027 213.409 276.546C211.946 277.11 210.555 277.846 209.266 278.739C207.38 279.885 205.423 281.045 203.475 282.175Z" fill="#B27B60"/>
</g>
<path d="M223.514 230.941L222.899 230.777C222.584 230.498 222.209 230.297 221.803 230.189C221.397 230.081 220.972 230.069 220.561 230.154C219.746 230.374 218.989 230.769 218.342 231.31C217.146 232.205 216.118 233.304 215.302 234.556C214.946 234.99 214.711 235.512 214.621 236.067C214.531 236.622 214.589 237.191 214.79 237.716C214.966 237.975 215.202 238.188 215.478 238.336C215.755 238.484 216.062 238.563 216.376 238.567C216.995 238.587 217.612 238.47 218.181 238.223C219.794 237.657 221.263 236.742 222.485 235.546C223.323 234.794 223.883 233.782 224.074 232.672C224.06 231.613 224.54 231.049 223.514 230.941Z" fill="#652700"/>
<path d="M192.521 259.84C193.444 260.086 194.447 259.661 195.237 259.047C196.115 258.458 196.859 257.69 197.419 256.793C197.716 256.329 197.915 255.809 198.003 255.266C198.092 254.722 198.067 254.166 197.931 253.632C197.793 253.128 197.492 252.684 197.075 252.37C196.657 252.056 196.148 251.89 195.625 251.897C195.582 251.857 195.531 251.826 195.476 251.806C195.42 251.786 195.361 251.777 195.302 251.779C195.244 251.782 195.186 251.796 195.132 251.822C195.079 251.847 195.031 251.882 194.992 251.926L193.884 252.126C192.927 252.704 192.165 253.555 191.695 254.569C191.225 255.584 191.069 256.716 191.247 257.819C191.273 258.236 191.403 258.64 191.626 258.993C191.848 259.346 192.156 259.637 192.521 259.84Z" fill="#B27B60"/>
<path d="M248.579 251.265C247.647 250.791 246.612 250.553 245.567 250.574C244.521 250.594 243.497 250.872 242.584 251.383C241.897 251.746 241.32 252.287 240.914 252.949C240.454 253.555 240.251 254.318 240.349 255.073C240.501 255.682 240.852 256.222 241.345 256.61C241.838 256.998 242.445 257.211 243.073 257.216C244.333 257.204 245.567 256.849 246.641 256.189C247.235 255.968 247.773 255.62 248.218 255.169C248.662 254.718 249.003 254.174 249.215 253.577C249.672 251.985 249.641 251.977 248.579 251.265Z" fill="#652700"/>
<path d="M226.504 245.814C225.687 245.61 224.826 245.673 224.048 245.994C223.269 246.314 222.612 246.875 222.175 247.595C221.297 249.08 220.794 250.756 220.709 252.479C220.588 252.953 220.578 253.449 220.679 253.927C220.78 254.406 220.99 254.855 221.292 255.239C222.168 256.033 223.542 255.575 224.664 254.95C226.488 253.779 227.931 252.101 228.817 250.122C229.143 249.591 229.321 248.981 229.331 248.357C229.34 247.733 229.182 247.118 228.871 246.576C227.977 245.481 227.704 246.134 226.504 245.814Z" fill="#652700"/>
<path d="M195.961 289.108C196.543 287.788 196.917 286.386 197.068 284.952C197.16 284.638 197.185 284.308 197.141 283.984C197.097 283.66 196.984 283.348 196.812 283.071C196.675 282.943 196.513 282.847 196.335 282.789C196.158 282.731 195.97 282.713 195.784 282.736C195.599 282.759 195.421 282.822 195.263 282.922C195.105 283.021 194.97 283.154 194.869 283.312L194.158 283.386L194.004 283.345L193.801 283.488C192.961 283.598 192.192 284.016 191.643 284.661C191.103 285.314 190.655 286.037 190.313 286.812C189.966 287.359 189.739 287.973 189.648 288.613C189.557 289.254 189.603 289.907 189.784 290.529C190.092 291.124 190.601 291.591 191.22 291.847C191.84 292.102 192.53 292.13 193.168 291.924C193.806 291.679 194.385 291.301 194.866 290.815C195.348 290.33 195.721 289.748 195.961 289.108Z" fill="#652700"/>
<path d="M209.868 295.284C210.598 295.596 211.396 295.716 212.185 295.632C212.975 295.548 213.73 295.263 214.378 294.804C215.694 293.861 216.831 292.69 217.737 291.347C218.092 290.96 218.369 290.508 218.553 290.015C218.632 289.774 218.644 289.517 218.588 289.27C218.532 289.023 218.41 288.795 218.235 288.612C218.059 288.462 217.851 288.354 217.628 288.294C217.404 288.235 217.17 288.226 216.943 288.268C216.485 288.377 216.034 288.586 215.585 288.664C214.577 288.648 213.574 288.503 212.603 288.233C211.739 288.155 210.872 288.35 210.123 288.788C209.374 289.227 208.781 289.888 208.425 290.68C208.06 291.492 208.006 292.408 208.272 293.257C208.537 294.106 209.105 294.827 209.868 295.284Z" fill="#652700"/>
<path d="M229.795 274.284C230.289 273.586 230.7 272.833 231.019 272.039C231.143 271.814 231.21 271.562 231.215 271.305C231.221 271.048 231.164 270.794 231.049 270.563C230.633 270.024 229.788 270.227 229.144 270.419L225.975 271.553C225.193 271.791 224.447 272.136 223.758 272.578C223.067 273.037 222.582 273.747 222.407 274.558C222.334 275.131 222.458 275.711 222.757 276.204C223.057 276.697 223.515 277.074 224.056 277.272C224.622 277.461 225.222 277.519 225.813 277.443C226.405 277.366 226.971 277.156 227.469 276.83C228.409 276.148 229.201 275.282 229.795 274.284Z" fill="#652700"/>
<path d="M247.248 273.823C247.064 273.171 246.634 272.616 246.048 272.276C245.463 271.935 244.768 271.836 244.11 271.998C243.426 272.195 242.799 272.551 242.28 273.037C241.761 273.524 241.365 274.127 241.124 274.796C240.629 276.106 240.446 277.514 240.589 278.907C240.563 279.132 240.588 279.36 240.662 279.574C240.736 279.788 240.858 279.982 241.018 280.142C241.264 280.276 241.54 280.343 241.819 280.336C242.098 280.33 242.371 280.25 242.61 280.104C244.326 279.362 245.748 278.071 246.652 276.433C247.156 275.663 247.368 274.736 247.248 273.823Z" fill="#652700"/>
<path d="M267.632 259.274C268.287 259.051 268.883 258.679 269.371 258.188C269.874 257.668 270.163 256.977 270.178 256.253C270.194 255.53 269.935 254.827 269.454 254.287C269.036 253.927 268.542 253.667 268.01 253.525C267.477 253.383 266.919 253.363 266.378 253.467C264.966 253.659 263.619 254.182 262.446 254.991C261.563 255.551 260.874 256.369 260.471 257.334C260.271 257.794 260.216 258.304 260.315 258.796C260.414 259.288 260.661 259.738 261.023 260.085C261.433 260.336 261.894 260.491 262.372 260.539C262.85 260.586 263.333 260.525 263.784 260.359C265.098 260.119 266.386 259.756 267.632 259.274Z" fill="#652700"/>
<path d="M209.403 259.919C208.717 259.709 207.996 259.64 207.282 259.716C206.091 260.081 205.032 260.787 204.238 261.747C203.443 262.707 202.947 263.88 202.812 265.119C202.724 265.566 202.75 266.028 202.887 266.463C203.025 266.897 203.27 267.289 203.6 267.604C203.876 267.806 204.199 267.935 204.539 267.979C204.878 268.024 205.223 267.982 205.542 267.857C206.206 267.611 206.806 267.219 207.298 266.709C208.141 265.906 208.873 264.991 209.472 263.992C209.848 263.4 210.112 262.744 210.251 262.056C210.306 261.718 210.293 261.372 210.212 261.039C210.131 260.705 209.984 260.392 209.779 260.117C209.325 259.469 209.979 259.61 209.403 259.919Z" fill="#652700"/>
<path d="M193.751 260.167C195.222 259.762 196.564 258.984 197.648 257.908C198.169 257.347 198.545 256.666 198.743 255.925C198.94 255.185 198.953 254.407 198.779 253.66C198.567 253.023 198.173 252.461 197.645 252.046C197.118 251.63 196.48 251.378 195.811 251.32L195.534 251.246C194.83 251.473 194.191 251.867 193.671 252.395C193.152 252.923 192.768 253.568 192.552 254.276C192.128 255.7 191.922 257.179 191.944 258.664C191.896 258.937 191.912 259.218 191.989 259.484C192.067 259.751 192.204 259.996 192.391 260.201C192.748 260.592 193.23 260.391 193.751 260.167Z" fill="#652700"/>
<path d="M151.796 229.756C148.883 228.912 145.971 231.248 142.956 231.217C139.94 231.186 137.274 228.951 134.397 229.483C131.521 230.014 129.696 233.471 127.456 235.629C125.07 237.617 122.397 239.232 119.528 240.421C116.804 241.832 114.065 243.909 113.195 246.891C112.857 248.59 112.995 250.351 113.594 251.977C114.194 253.603 115.232 255.031 116.592 256.104C119.342 258.234 122.471 259.823 125.813 260.786C134.767 264.218 143.997 266.881 153.403 268.744C155.441 269.217 157.559 269.221 159.599 268.756C160.612 268.514 161.53 267.974 162.234 267.205C162.939 266.437 163.397 265.475 163.551 264.444C163.667 262.702 162.674 261.119 162.577 259.385C162.423 256.309 164.514 253.939 163.673 250.741C162.785 248.158 161.384 245.782 159.555 243.755C158.51 242.433 157.655 240.97 157.015 239.411C156.429 237.808 156.382 236.098 155.886 234.472C155.637 233.413 155.135 232.43 154.423 231.609C153.71 230.787 152.809 230.151 151.796 229.756Z" fill="#993A12"/>
<g style="mix-blend-mode:screen" opacity="0.32">
<path d="M134.468 243.193C138.88 245.509 140.347 242.656 144.266 241.659C146.493 241.024 148.859 241.067 151.062 241.783C153.462 242.479 155.547 243.985 156.965 246.044C158.401 248.562 158.474 251.593 159.845 254.068C160.543 255.309 161.586 256.32 162.847 256.978C163.35 254.951 164.274 253.066 163.64 250.719C162.752 248.137 161.352 245.761 159.522 243.733C158.477 242.411 157.622 240.949 156.983 239.389C156.396 237.786 156.35 236.077 155.853 234.45C155.602 233.402 155.102 232.429 154.396 231.615C153.689 230.8 152.797 230.169 151.794 229.773C148.881 228.93 145.969 231.266 142.953 231.235C139.938 231.204 137.272 228.969 134.395 229.5C131.519 230.031 129.954 232.96 127.988 235.17C129.064 238.564 131.377 241.428 134.468 243.193Z" fill="#A24B27"/>
</g>
<g style="mix-blend-mode:multiply" opacity="0.55">
<path d="M126.299 241.297C128.809 242.967 132.735 245.924 135.358 243.516C132.876 243.336 130.523 242.347 128.657 240.7C127.486 239.503 126.799 237.914 126.729 236.24C125.415 237.315 123.973 238.223 122.436 238.945C123.755 239.762 125.052 240.471 126.299 241.297Z" fill="#8C3A12"/>
</g>
<g style="mix-blend-mode:multiply" opacity="0.55">
<path d="M146.153 238.403C146.971 238.63 147.774 238.908 148.558 239.235C150.089 240.237 151.698 241.116 153.368 241.864C154.924 242.152 156.529 241.97 157.981 241.343C157.615 240.742 157.295 240.114 157.026 239.465C156.84 238.917 156.688 238.358 156.571 237.791C155.37 238.311 154.103 238.659 152.806 238.825C150.641 239.007 148.034 237.412 146.153 238.403Z" fill="#8C3A12"/>
</g>
<g style="mix-blend-mode:multiply" opacity="0.55">
<path d="M149.857 256.684C147.425 255.374 146.08 252.411 142.681 254.018C141.33 254.759 139.794 255.095 138.257 254.985L137.411 254.878C139.346 257.758 143.88 256.611 146.903 257.135C148.516 257.648 150.208 257.862 151.897 257.768C151.192 257.455 150.511 257.093 149.857 256.684Z" fill="#8C3A12"/>
</g>
<g style="mix-blend-mode:multiply" opacity="0.55">
<path d="M153.232 248.206L152.921 248.307C154.126 248.987 155.254 249.795 156.285 250.718C158.385 252.476 161.023 253.461 163.761 253.51C163.951 252.583 163.928 251.625 163.694 250.709C163.355 249.449 162.812 248.253 162.089 247.168C161.041 248.024 159.748 248.525 158.397 248.597C156.699 248.698 154.864 247.798 153.232 248.206Z" fill="#8C3A12"/>
</g>
<path d="M163.551 264.444C161.359 266.362 158.419 266.71 154.969 264.007C151.52 261.304 148.158 264.004 144.639 262.399C141.315 260.924 139.438 257.313 135.678 257.75C134.434 257.904 133.172 257.746 132.004 257.291C130.836 256.837 129.799 256.099 128.986 255.145C127.321 253.178 124.246 254.861 122.074 254.269C120.813 253.938 119.601 253.442 118.469 252.794C114.68 250.557 114.279 247.344 115.042 243.822C114.173 244.715 113.53 245.801 113.165 246.992C112.826 248.692 112.965 250.452 113.564 252.079C114.164 253.705 115.201 255.133 116.562 256.205C119.312 258.336 122.44 259.924 125.782 260.887C134.736 264.32 143.966 266.982 153.373 268.846C155.41 269.319 157.529 269.323 159.568 268.858C160.602 268.614 161.536 268.061 162.248 267.273C162.96 266.484 163.414 265.498 163.551 264.444Z" fill="#792C12"/>
<path d="M155.37 266.657C154.319 267.332 153.45 267.96 152.28 267.495C150.929 266.961 149.839 265.922 149.241 264.598C147.919 265.607 147.336 266.605 145.588 265.716C144.347 265.105 143.259 264.222 142.404 263.134C141.269 263.64 140.926 264.264 139.653 263.787C138.034 263.202 136.669 262.073 135.791 260.592C132.737 261.698 129.791 261.114 128.714 258.536C128.289 258.761 127.823 258.899 127.345 258.941C126.866 258.983 126.384 258.928 125.926 258.78C124.188 258.129 122.717 256.916 121.746 255.334C118.552 255.738 116.778 255.741 114.808 253.419L114.937 285.229C122.6 290.926 131.714 294.346 141.232 295.096L158.638 268.582C157.993 268.492 157.373 268.276 156.812 267.945C156.252 267.615 155.762 267.177 155.37 266.657Z" fill="#BE4C1B"/>
<path d="M119.995 256.957C117.097 265.805 116.096 275.165 117.058 284.426C117.058 284.426 123.866 266.582 119.995 256.957Z" fill="#8F3300"/>
<path d="M127.626 260.471C127.626 260.471 120.52 273.043 121.86 287.266C121.86 287.266 130.212 269.986 127.626 260.471Z" fill="#8F3300"/>
<path d="M134.99 262.897C130.135 270.832 127.502 279.927 127.369 289.228C127.369 289.228 136.19 271.99 134.99 262.897Z" fill="#8F3300"/>
<path d="M141.646 265.515C141.646 265.515 132.809 277.341 131.997 290.395C131.997 290.395 141.499 274.982 141.646 265.515Z" fill="#8F3300"/>
<path d="M147.833 268.091C142.043 274.697 137.964 282.625 135.953 291.177C135.953 291.177 145.867 278.609 147.833 268.091Z" fill="#8F3300"/>
<path d="M153.888 269.491C147.659 275.915 142.788 283.53 139.569 291.881C139.569 291.881 151.91 278.866 153.888 269.491Z" fill="#8F3300"/>
<g style="mix-blend-mode:multiply" opacity="0.5">
<path d="M133.607 280.463C129.707 277.433 126.853 273.257 125.447 268.521C124.611 266.114 123.831 263.679 123.162 261.205C122.782 259.769 122.549 258.282 122.282 256.79C119.319 257.17 117.669 257.171 115.834 255.024L115.952 284.567C123.076 289.856 131.545 293.029 140.388 293.724L146.22 284.837C141.713 284.472 137.373 282.967 133.607 280.463Z" fill="#9E5838"/>
</g>
<g style="mix-blend-mode:screen" opacity="0.32">
<path d="M158.601 245.32C158.454 245.049 158.211 244.843 157.92 244.742L152.541 242.304C151.767 241.904 150.94 241.616 150.086 241.448C149.66 241.36 149.22 241.362 148.794 241.453C148.368 241.544 147.966 241.723 147.614 241.978C147.266 242.242 147.016 242.613 146.902 243.034C146.788 243.455 146.817 243.902 146.985 244.305C147.187 244.632 147.47 244.901 147.806 245.085C148.143 245.27 148.522 245.363 148.906 245.356C149.677 245.333 150.441 245.192 151.171 244.941C151.902 244.691 152.681 244.615 153.446 244.72C154.971 245.018 156.19 246.613 157.733 246.352C158.243 246.206 158.769 245.798 158.601 245.32Z" fill="#B27B60"/>
</g>
<g style="mix-blend-mode:screen" opacity="0.32">
<path d="M133.101 233.341L131.049 234.574C130.566 234.791 130.168 235.16 129.915 235.625C129.525 236.489 130.266 237.426 131.142 237.853C132.74 238.167 134.394 238.011 135.904 237.403C137.605 237.034 139.369 237.071 141.052 237.511C141.606 237.698 142.178 237.829 142.758 237.902C143.058 237.928 143.36 237.885 143.641 237.778C143.922 237.671 144.175 237.501 144.382 237.283C144.585 236.953 144.681 236.569 144.658 236.182C144.635 235.796 144.493 235.426 144.252 235.123C143.751 234.536 143.127 234.067 142.424 233.75C141.343 233.137 140.199 232.645 139.011 232.281C137.821 231.918 136.552 231.898 135.35 232.221C134.554 232.493 133.798 232.87 133.101 233.341Z" fill="#B27B60"/>
</g>
<g style="mix-blend-mode:screen" opacity="0.32">
<path d="M153.77 256.846C153.098 256.602 152.402 256.426 151.695 256.32C150.054 255.915 148.588 254.99 147.517 253.682C149.407 254.043 151.345 254.075 153.246 253.776C155.158 253.469 157.117 253.842 158.783 254.829C159.215 255.118 159.577 255.5 159.843 255.947C160.108 256.394 160.27 256.895 160.317 257.412C160.345 257.933 160.195 258.447 159.893 258.872C159.59 259.296 159.153 259.605 158.651 259.748C158.164 259.788 157.674 259.715 157.219 259.535C156.764 259.356 156.356 259.075 156.026 258.713C155.364 257.989 154.605 257.361 153.77 256.846Z" fill="#B27B60"/>
</g>
<g style="mix-blend-mode:screen" opacity="0.32">
<path d="M137.225 246.511C137.137 246.82 137.126 247.147 137.193 247.462C137.261 247.776 137.404 248.07 137.611 248.316C138.046 248.813 138.604 249.186 139.229 249.4C141.844 250.228 144.624 250.387 147.316 249.863C147.885 249.812 148.598 249.586 148.616 249.026C148.598 248.855 148.541 248.691 148.45 248.546C148.359 248.4 148.236 248.277 148.091 248.187C145.832 246.281 142.979 245.224 140.025 245.197C139.48 245.162 138.934 245.236 138.417 245.415C138.153 245.504 137.911 245.648 137.706 245.837C137.5 246.026 137.337 246.255 137.225 246.511Z" fill="#B27B60"/>
</g>
<g style="mix-blend-mode:screen" opacity="0.32">
<path d="M126.562 245.318C125.735 245.077 124.935 244.752 124.174 244.348C123.322 243.694 122.386 243.156 121.393 242.748C120.851 242.609 120.282 242.624 119.749 242.79C119.215 242.957 118.738 243.268 118.371 243.69C118.005 244.112 117.762 244.627 117.672 245.179C117.581 245.731 117.645 246.297 117.858 246.814C118.123 247.36 118.503 247.842 118.973 248.226C119.443 248.61 119.99 248.887 120.578 249.038C121.764 249.338 122.983 249.492 124.206 249.498C125.433 249.465 126.654 249.68 127.796 250.129C128.676 250.522 129.421 251.16 130.319 251.555C130.745 251.788 131.228 251.899 131.713 251.877C132.199 251.855 132.669 251.7 133.073 251.43C133.364 251.15 133.568 250.792 133.662 250.399C133.755 250.006 133.734 249.594 133.6 249.213C133.318 248.45 132.778 247.81 132.074 247.404C131.372 247.011 130.628 246.698 129.857 246.473L126.562 245.318Z" fill="#B27B60"/>
</g>
<path d="M152.814 235.716L152.717 235.37C152.708 235.154 152.649 234.943 152.545 234.753C152.441 234.563 152.295 234.4 152.118 234.276C151.761 234.032 151.359 233.862 150.935 233.774C150.208 233.617 149.459 233.581 148.719 233.669C148.112 233.75 147.431 233.998 147.287 234.577C147.258 234.736 147.265 234.9 147.305 235.057C147.346 235.214 147.42 235.36 147.523 235.485C147.731 235.733 147.985 235.939 148.272 236.089C149.035 236.504 149.878 236.749 150.744 236.807C151.285 236.894 151.838 236.776 152.296 236.476C152.739 236.164 153.109 236.158 152.814 235.716Z" fill="#652700"/>
<path d="M131.472 233.17C131.597 233.397 131.777 233.59 131.995 233.732C132.213 233.873 132.463 233.957 132.721 233.978C133.243 234.123 133.789 234.157 134.324 234.076C134.592 234.037 134.849 233.941 135.077 233.794C135.305 233.647 135.498 233.453 135.644 233.224C135.784 232.996 135.85 232.729 135.83 232.462C135.81 232.194 135.707 231.94 135.534 231.735C135.533 231.672 135.508 231.613 135.465 231.568C135.422 231.524 135.363 231.497 135.301 231.494L134.839 231.12C134.301 230.936 133.719 230.921 133.172 231.078C132.624 231.235 132.138 231.555 131.779 231.996C131.639 232.154 131.539 232.343 131.485 232.546C131.432 232.75 131.428 232.964 131.472 233.17Z" fill="#B27B60"/>
<path d="M153.946 252.688C153.807 252.151 153.542 251.656 153.173 251.242C152.804 250.829 152.341 250.51 151.824 250.311C151.472 250.178 151.093 250.13 150.719 250.171C150.53 250.194 150.348 250.254 150.182 250.347C150.017 250.441 149.871 250.566 149.754 250.716C149.598 250.992 149.528 251.309 149.553 251.626C149.579 251.942 149.699 252.243 149.898 252.491C150.33 252.994 150.887 253.374 151.514 253.592C151.801 253.755 152.123 253.849 152.452 253.867C152.782 253.884 153.112 253.824 153.415 253.692C154.012 253.416 154.092 253.339 153.946 252.688Z" fill="#652700"/>
<path d="M148.374 241.934C148.185 241.542 147.874 241.222 147.488 241.022C147.102 240.821 146.662 240.75 146.233 240.819C145.378 240.974 144.575 241.344 143.902 241.894C143.685 242.021 143.498 242.193 143.354 242.399C143.209 242.606 143.111 242.84 143.066 243.088C143.076 243.704 143.708 244.118 144.3 244.298C145.355 244.611 146.479 244.606 147.532 244.286C148.135 244.099 148.781 243.707 148.878 243.087C148.974 242.467 148.611 242.561 148.374 241.934Z" fill="#652700"/>
<path d="M121.253 244.68C121.96 244.422 122.627 244.062 123.231 243.613C123.387 243.536 123.525 243.426 123.636 243.292C123.747 243.158 123.828 243.002 123.874 242.834C123.883 242.735 123.869 242.636 123.834 242.543C123.798 242.451 123.741 242.368 123.668 242.301C123.595 242.234 123.508 242.184 123.413 242.157C123.317 242.129 123.217 242.124 123.119 242.141L122.837 241.877L122.857 241.721L122.736 241.706C122.398 241.407 121.964 241.24 121.514 241.235C121.075 241.246 120.639 241.321 120.222 241.457C119.882 241.51 119.558 241.634 119.271 241.821C118.984 242.009 118.74 242.256 118.556 242.546C118.443 242.879 118.443 243.239 118.556 243.572C118.67 243.904 118.891 244.189 119.184 244.382C119.489 244.574 119.83 244.699 120.187 244.75C120.543 244.802 120.906 244.777 121.253 244.68Z" fill="#652700"/>
<path d="M123.637 252.605C123.763 253.016 123.992 253.387 124.301 253.684C124.61 253.982 124.99 254.195 125.405 254.305C126.239 254.5 127.1 254.55 127.95 254.452C128.217 254.451 128.481 254.395 128.726 254.287C128.85 254.237 128.957 254.153 129.036 254.045C129.115 253.937 129.162 253.809 129.172 253.676C129.171 253.549 129.142 253.425 129.087 253.311C129.031 253.198 128.951 253.098 128.851 253.02C128.642 252.871 128.409 252.771 128.202 252.604C127.995 252.437 127.652 251.674 127.342 251.213C127.082 250.836 126.707 250.553 126.274 250.406C125.84 250.259 125.37 250.257 124.935 250.399C124.489 250.548 124.112 250.854 123.874 251.259C123.635 251.665 123.551 252.143 123.637 252.605Z" fill="#652700"/>
<path d="M138.745 253.22C139.184 253.179 139.616 253.081 140.029 252.926C140.288 252.819 140.552 252.676 140.605 252.402C140.657 252.128 140.299 251.766 139.99 251.569L138.447 250.723C138.095 250.49 137.709 250.311 137.303 250.192C137.097 250.129 136.88 250.109 136.665 250.134C136.451 250.158 136.244 250.225 136.057 250.333C135.796 250.519 135.608 250.79 135.524 251.1C135.44 251.409 135.466 251.738 135.596 252.031C135.712 252.316 135.892 252.571 136.122 252.776C136.351 252.982 136.624 253.133 136.92 253.217C137.522 253.341 138.143 253.342 138.745 253.22Z" fill="#652700"/>
<path d="M145.008 260.18C145.187 259.861 145.245 259.488 145.171 259.13C145.097 258.772 144.896 258.453 144.606 258.232C144.303 258.025 143.955 257.893 143.592 257.847C143.229 257.801 142.859 257.842 142.515 257.967C141.833 258.239 141.229 258.675 140.756 259.237C140.659 259.314 140.579 259.412 140.523 259.523C140.466 259.634 140.434 259.756 140.429 259.88C140.455 260.026 140.521 260.161 140.618 260.272C140.715 260.384 140.84 260.467 140.981 260.512C141.855 260.957 142.857 261.084 143.814 260.872C144.05 260.844 144.277 260.768 144.483 260.649C144.688 260.53 144.867 260.37 145.008 260.18Z" fill="#652700"/>
<path d="M157.608 263.27C157.918 263.449 158.264 263.559 158.621 263.591C158.998 263.603 159.365 263.465 159.642 263.207C159.918 262.949 160.081 262.592 160.094 262.215C160.071 261.921 159.987 261.635 159.848 261.376C159.709 261.116 159.517 260.888 159.285 260.707C158.731 260.21 158.065 259.855 157.344 259.67C156.833 259.513 156.284 259.523 155.778 259.7C155.532 259.792 155.319 259.958 155.169 260.174C155.019 260.391 154.939 260.648 154.94 260.911C154.994 261.167 155.1 261.408 155.251 261.621C155.402 261.833 155.596 262.013 155.819 262.147C156.383 262.57 156.982 262.946 157.608 263.27Z" fill="#652700"/>
<path d="M137.152 240.02C137.008 239.67 136.791 239.355 136.515 239.096C135.989 238.757 135.375 238.581 134.749 238.59C134.124 238.598 133.515 238.79 132.997 239.142C132.794 239.266 132.624 239.438 132.503 239.643C132.382 239.849 132.314 240.081 132.304 240.319C132.329 240.499 132.395 240.672 132.498 240.822C132.601 240.972 132.737 241.096 132.897 241.184C133.197 241.304 133.518 241.362 133.84 241.357C134.429 241.424 135.025 241.399 135.606 241.282C135.959 241.231 136.298 241.106 136.6 240.916C136.75 240.82 136.878 240.694 136.979 240.547C137.079 240.399 137.148 240.234 137.183 240.059C137.323 239.778 137.515 240.066 137.152 240.02Z" fill="#652700"/>
<path d="M131.707 233.814C132.373 234.23 133.135 234.465 133.92 234.499C134.312 234.513 134.702 234.426 135.051 234.245C135.399 234.065 135.696 233.797 135.911 233.469C136.075 233.165 136.15 232.822 136.128 232.477C136.107 232.133 135.989 231.802 135.789 231.521L135.662 231.417C135.341 231.215 134.975 231.094 134.597 231.065C134.218 231.035 133.838 231.098 133.489 231.247C132.787 231.556 132.14 231.978 131.575 232.498C131.359 232.681 131.121 232.897 131.137 233.18C131.154 233.463 131.463 233.66 131.707 233.814Z" fill="#652700"/>
<path d="M155.445 368.537C149.473 373.953 139.105 373.482 133.8 367.633C128.496 361.783 127.001 355.183 132.973 349.767C138.945 344.351 144.474 345.651 149.779 351.5C155.083 357.35 161.417 363.121 155.445 368.537Z" fill="#FBD246"/>
<path d="M224.641 166.467C220.334 170.373 214.165 171.476 211.751 168.814C209.338 166.153 209.314 162.555 213.621 158.649C217.928 154.743 221.079 154.758 223.493 157.42C225.906 160.081 228.949 162.561 224.641 166.467Z" fill="#D56C48"/>
<path d="M184.958 267.736C185.893 270.754 185.021 274.046 183.156 274.623C181.292 275.201 179.514 274.388 178.579 271.37C177.644 268.352 178.374 266.804 180.239 266.226C182.103 265.648 184.023 264.719 184.958 267.736Z" fill="#D56C48"/>
<circle cx="195.037" cy="209.671" r="3.5" fill="#A73D22"/>
<path d="M144.216 201.166C142.573 202.916 138.734 200.802 136.745 198.812C134.755 196.822 132.237 192.904 135.136 190.005C138.036 187.105 141.917 191.118 143.907 193.107C145.896 195.097 145.86 199.416 144.216 201.166Z" fill="#E3AB5C"/>
<path d="M38.7837 159.285C38.1319 151.051 45.053 142.935 53.168 142.293C61.283 141.65 67.6094 144.568 68.2611 152.802C68.9129 161.037 64.3665 164.708 56.2515 165.351C48.1364 165.993 39.4354 167.519 38.7837 159.285Z" fill="#F89945"/>
<path d="M300.012 42.5338C300.789 45.4314 298.853 48.7868 295.997 49.5519C293.141 50.3171 290.69 49.6928 289.913 46.7952C289.137 43.8976 290.518 42.2861 293.374 41.521C296.229 40.7558 299.236 39.6363 300.012 42.5338Z" fill="#FFCC00"/>
</svg>
